<?xml version="1.0" encoding="utf-8"?>
<!-- Generator: Adobe Illustrator 24.0.1, SVG Export Plug-In . SVG Version: 6.00 Build 0)  -->
<svg version="1.1" xmlns="http://www.w3.org/2000/svg" xmlns:xlink="http://www.w3.org/1999/xlink" x="0px" y="0px"
	 viewBox="0 0 500 500" style="enable-background:new 0 0 500 500;" xml:space="preserve">
<style type="text/css">
	.st0{fill:#E6E6E6;}
	.st1{fill:#999999;}
	.st2{fill:#CCCCCC;}
	.st3{fill:#B3B3B3;}
	.st4{fill:#FFFFFF;}
	.st5{fill:#76FF55;}
</style>
<g id="底色">
	<g>
		<rect class="st0" width="500" height="500"/>
	</g>
</g>
<g id="边框">
	<polygon class="st1" points="480,480 20,480 0,500 500,500 	"/>
	<polygon class="st2" points="20,20 20,480 0,500 0,0 	"/>
	<polygon class="st3" points="480,20 480,480 500,500 500,0 	"/>
	<polygon class="st4" points="480,20 20,20 0,0 500,0 	"/>
</g>
<g id="按键">
	<polygon class="st2" points="450,100 50,100 70,440 430,440 	"/>
	<polygon class="st4" points="430,60 70,60 50,100 450,100 	"/>
	<path class="st5" d="M290.32,70h-80.63c-2.75,0-5.15,1.87-5.82,4.54l-2,8c-0.95,3.79,1.92,7.45,5.82,7.45h84.63
		c3.9,0,6.77-3.67,5.82-7.45l-2-8C295.47,71.87,293.07,70,290.32,70z"/>
</g>
</svg>
